<svg xmlns="http://www.w3.org/2000/svg" viewBox="0 0 64 64"><title>76_Approved</title><g id="_76_Approved" data-name="76_Approved"><path d="M52,55.3333H50.6667A4.6723,4.6723,0,0,1,46,50.6667a4.62,4.62,0,0,1,.5424-2.1226,6,6,0,0,0-1.209-11.8774,5.929,5.929,0,0,0-2,.3685V8A3.3364,3.3364,0,0,0,40,4.6667H13.3334A3.3364,3.3364,0,0,0,10,8V42.6667c0,.02.0194.0312.021.0506a.6466.6466,0,0,0,.1733.4188l.0014.0022,10.666,10.6661A.6645.6645,0,0,0,21.3334,54H40a3.3364,3.3364,0,0,0,3.3334-3.3333V48.2982a5.86,5.86,0,0,0,.791.2459,4.62,4.62,0,0,1,.5423,2.1226A4.6723,4.6723,0,0,1,40,55.3333H38.6667a2,2,0,0,0,0,4H52a2,2,0,0,0,0-4ZM20.6667,51.724l-8.3906-8.3907h6.3906a2.0023,2.0023,0,0,1,2,2ZM42,50.6667a2.0021,2.0021,0,0,1-2,2H22V45.3333A3.3364,3.3364,0,0,0,18.6667,42H11.3334V8a2.0021,2.0021,0,0,1,2-2H40a2.0021,2.0021,0,0,1,2,2V37.6823a5.9916,5.9916,0,0,0,0,9.9687Zm-1.3333-8a4.6667,4.6667,0,1,1,4.6667,4.6666A4.6723,4.6723,0,0,1,40.6667,42.6667Zm4.6667,10.6912a5.9987,5.9987,0,0,0,1.6087,1.9754H43.7246A6.0014,6.0014,0,0,0,45.3334,53.3579ZM52,58H38.6667a.6667.6667,0,1,1,0-1.3333H52A.6667.6667,0,1,1,52,58Z"/><path d="M36.862,10.1953l-5.6563,5.6563a2.0033,2.0033,0,0,1-2.8294,0l-1.8854-1.8854a.6666.6666,0,0,0-.9427.9426l1.8854,1.8855a3.3367,3.3367,0,0,0,4.7148,0l5.6563-5.6563a.6666.6666,0,0,0-.9427-.9427Z"/><path d="M16,22h5.3334a.6667.6667,0,0,0,0-1.3333H16A.6667.6667,0,0,0,16,22Z"/><path d="M16,27.3333h5.3334a.6667.6667,0,0,0,0-1.3333H16a.6667.6667,0,0,0,0,1.3333Z"/><path d="M16,32.6667H32a.6667.6667,0,0,0,0-1.3334H16a.6667.6667,0,0,0,0,1.3334Z"/><path d="M26.6667,36.6667H16A.6667.6667,0,0,0,16,38H26.6667a.6667.6667,0,1,0,0-1.3333Z"/><path d="M37.3334,36.6667H32A.6667.6667,0,0,0,32,38h5.3334a.6667.6667,0,0,0,0-1.3333Z"/><path d="M37.3334,26H26.6667a.6667.6667,0,1,0,0,1.3333H37.3334a.6667.6667,0,0,0,0-1.3333Z"/></g></svg>