<svg xmlns="http://www.w3.org/2000/svg" viewBox="0 0 64 64" fill="#5c96d8"><title>5_Strategy</title><g id="_5_Strategy" data-name="5_Strategy"><path d="M32.0014,21.999a3.3334,3.3334,0,1,0-3.3334-3.3334A3.3364,3.3364,0,0,0,32.0014,21.999Zm0-5.3334a2,2,0,1,1-2,2A2.0022,2.0022,0,0,1,32.0014,16.6656Z"/><path d="M29.3347,43.3323H34.668a3.3364,3.3364,0,0,0,3.3334-3.3333v-2h2a3.3364,3.3364,0,0,0,3.3333-3.3334v-8a3.3364,3.3364,0,0,0-3.3333-3.3333h-16a3.3364,3.3364,0,0,0-3.3334,3.3333v8a3.3365,3.3365,0,0,0,3.3334,3.3334h2v2A3.3364,3.3364,0,0,0,29.3347,43.3323Zm-5.3333-6.6667a2.0021,2.0021,0,0,1-2-2v-8a2.0021,2.0021,0,0,1,2-2h16a2.0022,2.0022,0,0,1,2,2v8a2.0022,2.0022,0,0,1-2,2h-2V29.3323a.6667.6667,0,0,0-1.3334,0V39.999a2.0022,2.0022,0,0,1-2,2h-2V34.6656a.6667.6667,0,0,0-1.3333,0V41.999h-2a2.0022,2.0022,0,0,1-2-2V29.3323a.6667.6667,0,1,0-1.3333,0v7.3333Z"/><path d="M28.8633,11.137a.6666.6666,0,0,0,.9428,0l2.1953-2.1953,2.1953,2.1953a.6666.6666,0,0,0,.9427-.9427L32.9441,7.999l2.1953-2.1954a.6666.6666,0,0,0-.9427-.9426L32.0014,7.0563,29.8061,4.861a.6666.6666,0,1,0-.9428.9426L31.0586,7.999l-2.1953,2.1953A.6664.6664,0,0,0,28.8633,11.137Z"/><path d="M54.2774,31.999l2.1953-2.1954a.6666.6666,0,0,0-.9427-.9426l-2.1953,2.1953L51.1394,28.861a.6666.6666,0,0,0-.9427.9426L52.392,31.999l-2.1953,2.1953a.6666.6666,0,1,0,.9427.9427l2.1953-2.1953L55.53,35.137a.6666.6666,0,0,0,.9427-.9427Z"/><path d="M37.3347,8.6656H50.668a2.0021,2.0021,0,0,1,2,2v16a.6667.6667,0,1,0,1.3334,0v-16A3.3364,3.3364,0,0,0,50.668,7.3323H37.3347a.6667.6667,0,1,0,0,1.3333Z"/><path d="M10.668,27.3323a.6663.6663,0,0,0,.6667-.6667v-16a2.0021,2.0021,0,0,1,2-2H26.668a.6667.6667,0,1,0,0-1.3333H13.3347a3.3364,3.3364,0,0,0-3.3333,3.3333v16A.6662.6662,0,0,0,10.668,27.3323Z"/><path d="M53.3347,36.6656a.6663.6663,0,0,0-.6667.6667v16a2.0021,2.0021,0,0,1-2,2H37.3347a.6667.6667,0,1,0,0,1.3333H50.668a3.3364,3.3364,0,0,0,3.3334-3.3333v-16A.6663.6663,0,0,0,53.3347,36.6656Z"/><path d="M26.668,55.3323H13.3347a2.0021,2.0021,0,0,1-2-2v-16a.6667.6667,0,1,0-1.3333,0v16a3.3364,3.3364,0,0,0,3.3333,3.3333H26.668a.6667.6667,0,1,0,0-1.3333Z"/><path d="M14.0014,31.999a3.3334,3.3334,0,1,0-3.3334,3.3333A3.3365,3.3365,0,0,0,14.0014,31.999Zm-5.3334,0a2,2,0,1,1,2,2A2.0022,2.0022,0,0,1,8.668,31.999Z"/><path d="M32.0014,52.6656a3.3334,3.3334,0,1,0,3.3333,3.3334A3.3365,3.3365,0,0,0,32.0014,52.6656Zm0,5.3334a2,2,0,1,1,2-2A2.0022,2.0022,0,0,1,32.0014,57.999Z"/><path d="M48.0014,12.6656H42.668a.6667.6667,0,0,0,0,1.3334h5.3334a.6667.6667,0,0,0,0-1.3334Z"/><path d="M16.0014,19.3323h5.3333a.6667.6667,0,1,0,0-1.3333H16.0014a.6667.6667,0,1,0,0,1.3333Z"/><path d="M16.0014,45.999h5.3333a.6667.6667,0,0,0,0-1.3334H16.0014a.6667.6667,0,1,0,0,1.3334Z"/><path d="M42.668,51.3323h5.3334a.6667.6667,0,0,0,0-1.3333H42.668a.6667.6667,0,0,0,0,1.3333Z"/></g></svg>
