<svg xmlns="http://www.w3.org/2000/svg" viewBox="0 0 64 64"><title>81_Tax</title><g id="_81_Tax" data-name="81_Tax"><path d="M53.3333,7.3333h-32a6.0066,6.0066,0,0,0-6,6V18H10.6667a6.0066,6.0066,0,0,0-6,6V50.6667a6.0066,6.0066,0,0,0,6,6h32a6.0066,6.0066,0,0,0,6-6V13.3333a4.6667,4.6667,0,0,1,9.3333,0,.6667.6667,0,1,0,1.3333,0A6.0066,6.0066,0,0,0,53.3333,7.3333Zm-42.6666,48A4.6723,4.6723,0,0,1,6,50.6667V24a4.6723,4.6723,0,0,1,4.6667-4.6667H32A4.6724,4.6724,0,0,1,36.6667,24V50.6667a5.9668,5.9668,0,0,0,2.2753,4.6666Zm36.6666-42V18H42.6667a.6667.6667,0,1,0,0,1.3333h4.6666V50.6667a4.6667,4.6667,0,0,1-9.3333,0V24a6.0066,6.0066,0,0,0-6-6H16.6667V14h4.6666a.6667.6667,0,1,0,0-1.3333H16.734a4.66,4.66,0,0,1,4.5993-4H49.6087A5.9666,5.9666,0,0,0,47.3333,13.3333Z"/><path d="M32,23.3333H10.6667a.6667.6667,0,0,0,0,1.3334H32a.6667.6667,0,0,0,0-1.3334Z"/><path d="M21.7917,43.7891a3.3314,3.3314,0,1,0-2.3581-.974A3.3231,3.3231,0,0,0,21.7917,43.7891ZM20.3763,39.043a2.0007,2.0007,0,1,1,0,2.8294A1.9927,1.9927,0,0,1,20.3763,39.043Z"/><path d="M26.9765,45.6432a3.333,3.333,0,1,0,4.7136,0A3.3371,3.3371,0,0,0,26.9765,45.6432Zm3.7709,3.7709a1.9987,1.9987,0,1,1,0-2.8282A2.0041,2.0041,0,0,1,30.7474,49.4141Z"/><path d="M31.69,38.1a.6663.6663,0,0,0-.9427,0L19.4336,49.4141a.6666.6666,0,1,0,.9427.9427L31.69,39.043A.6664.6664,0,0,0,31.69,38.1Z"/><path d="M10.6667,30H21.3333a.6667.6667,0,1,0,0-1.3333H10.6667a.6667.6667,0,1,0,0,1.3333Z"/><path d="M16,44.6667H10.6667a.6667.6667,0,1,0,0,1.3333H16a.6667.6667,0,1,0,0-1.3333Z"/></g></svg>