<svg id="_50_Intelligent" data-name="50_Intelligent" xmlns="http://www.w3.org/2000/svg" viewBox="0 0 64 64"><title>50_Intelligent</title><path d="M32,24.6667a3.3334,3.3334,0,1,0-3.3333-3.3334A3.3364,3.3364,0,0,0,32,24.6667Zm0-5.3334a2,2,0,1,1-2,2A2.003,2.003,0,0,1,32,19.3333Z"/><path d="M40,26H24a3.3364,3.3364,0,0,0-3.3333,3.3333v8A3.3364,3.3364,0,0,0,24,40.6667h2v2A3.3364,3.3364,0,0,0,29.3333,46h5.3334A3.3364,3.3364,0,0,0,38,42.6667v-2h2a3.3364,3.3364,0,0,0,3.3333-3.3334v-8A3.3364,3.3364,0,0,0,40,26Zm2,11.3333a2.0038,2.0038,0,0,1-2,2H38V32a.6667.6667,0,1,0-1.3333,0V42.6667a2.0039,2.0039,0,0,1-2,2h-2V37.3333a.6667.6667,0,0,0-1.3334,0v7.3334h-2a2.0039,2.0039,0,0,1-2-2V32A.6667.6667,0,1,0,26,32v7.3333H24a2.0038,2.0038,0,0,1-2-2v-8a2.003,2.003,0,0,1,2-2H40a2.003,2.003,0,0,1,2,2Z"/><path d="M56,39.3333A3.2893,3.2893,0,0,0,52.8016,42H48.5153A19.1789,19.1789,0,0,0,51.3,32.6667H56a.6667.6667,0,0,0,0-1.3334H51.3A19.1794,19.1794,0,0,0,48.515,22h4.2866A3.29,3.29,0,0,0,56,24.6667,3.3334,3.3334,0,0,0,56,18a3.2893,3.2893,0,0,0-3.1984,2.6667H47.63a19.3057,19.3057,0,0,0-14.0977-7.9225l3.4175-3.4175a3.4089,3.4089,0,1,0-.2128-1.6727l-5.0273,5.0273A19.298,19.298,0,0,0,16.37,20.6667H11.1985A3.2894,3.2894,0,0,0,8,18a3.3334,3.3334,0,0,0,0,6.6667A3.29,3.29,0,0,0,11.1985,22H15.485A19.1794,19.1794,0,0,0,12.7,31.3333H8a.6667.6667,0,0,0,0,1.3334h4.7A19.1789,19.1789,0,0,0,15.4847,42H11.1985A3.2894,3.2894,0,0,0,8,39.3333,3.3334,3.3334,0,0,0,8,46a3.29,3.29,0,0,0,3.1985-2.6667H16.37a19.3055,19.3055,0,0,0,14.0982,7.9226l-3.4173,3.4173a3.4093,3.4093,0,1,0,.2126,1.6728l5.0273-5.0273A19.2974,19.2974,0,0,0,47.63,43.3333h5.1715A3.29,3.29,0,0,0,56,46a3.3334,3.3334,0,0,0,0-6.6667Zm0-20a2,2,0,1,1-2,2A2.003,2.003,0,0,1,56,19.3333ZM40,6a2,2,0,1,1-2,2A2.003,2.003,0,0,1,40,6ZM8,23.3333a2,2,0,1,1,2-2A2.003,2.003,0,0,1,8,23.3333ZM8,44.6667a2,2,0,1,1,2-2A2.0039,2.0039,0,0,1,8,44.6667ZM24,58a2,2,0,1,1,2-2A2.0038,2.0038,0,0,1,24,58Zm8-8A18,18,0,1,1,50,32,18.0213,18.0213,0,0,1,32,50Zm24-5.3333a2,2,0,1,1,2-2A2.0039,2.0039,0,0,1,56,44.6667Z"/></svg>