<svg xmlns="http://www.w3.org/2000/svg" viewBox="0 0 64 64"><title>43_Decision</title><g id="_43_Decision" data-name="43_Decision"><path d="M33.3334,36.6667A3.3334,3.3334,0,1,0,30,33.3333,3.3364,3.3364,0,0,0,33.3334,36.6667Zm0-5.3334a2,2,0,1,1-2,2A2.0023,2.0023,0,0,1,33.3334,31.3333Z"/><path d="M41.3334,38h-16A3.3364,3.3364,0,0,0,22,41.3333v8a3.3365,3.3365,0,0,0,3.3334,3.3334h2v2A3.3364,3.3364,0,0,0,30.6667,58H36a3.3364,3.3364,0,0,0,3.3334-3.3333v-2h2a3.3364,3.3364,0,0,0,3.3333-3.3334v-8A3.3364,3.3364,0,0,0,41.3334,38Zm2,11.3333a2.003,2.003,0,0,1-2,2h-2V44A.6667.6667,0,0,0,38,44V54.6667a2.003,2.003,0,0,1-2,2H34V49.3333a.6667.6667,0,0,0-1.3333,0v7.3334h-2a2.003,2.003,0,0,1-2-2V44a.6667.6667,0,1,0-1.3333,0v7.3333h-2a2.003,2.003,0,0,1-2-2v-8a2.003,2.003,0,0,1,2-2h16a2.0031,2.0031,0,0,1,2,2Z"/><path d="M24.405,26.29,26.29,24.4036a1.9993,1.9993,0,0,0,0-2.8281l-.9089-.9088h1.2852a2.0023,2.0023,0,0,0,2-2V16a2.0023,2.0023,0,0,0-2-2H25.3815l.9089-.9089a2.0033,2.0033,0,0,0,0-2.8294L24.405,8.3763a2,2,0,0,0-2.8294,0l-.9089.9089V8a2.0023,2.0023,0,0,0-2-2H16a2.0023,2.0023,0,0,0-2,2V9.2852l-.9088-.9089a1.9879,1.9879,0,0,0-1.4141-.586h-.0013a1.98,1.98,0,0,0-1.4127.586L8.3763,10.2617a2.0056,2.0056,0,0,0,0,2.8294L9.2852,14H8a2.0023,2.0023,0,0,0-2,2v2.6667a2.0023,2.0023,0,0,0,2,2H9.2852l-.9089.9088a2.0041,2.0041,0,0,0,0,2.8281L10.2631,26.29a2.0051,2.0051,0,0,0,2.8281,0L14,25.3815v1.2852a2.0023,2.0023,0,0,0,2,2h2.6667a2.0023,2.0023,0,0,0,2-2V25.3815l.9089.9088A2.0066,2.0066,0,0,0,24.405,26.29ZM20.4714,23.3a.6666.6666,0,0,0-1.138.4713v2.8959a.6679.6679,0,0,1-.6667.6666H16a.6678.6678,0,0,1-.6666-.6666V23.7708A.6667.6667,0,0,0,14.1953,23.3l-2.0469,2.0482a.6688.6688,0,0,1-.9427,0L9.319,23.4609a.6688.6688,0,0,1,0-.9427l2.0482-2.0468a.6667.6667,0,0,0-.4713-1.1381H8a.6678.6678,0,0,1-.6666-.6666V16A.6679.6679,0,0,1,8,15.3333h2.8959a.6666.6666,0,0,0,.4713-1.138L9.319,12.1484a.67.67,0,0,1,0-.944L11.2057,9.319a.66.66,0,0,1,.47-.1953h.0013a.66.66,0,0,1,.4713.1953l2.0469,2.0482a.6667.6667,0,0,0,1.1381-.4714V8A.6679.6679,0,0,1,16,7.3333h2.6667A.668.668,0,0,1,19.3334,8v2.8958a.6666.6666,0,0,0,1.138.4714L22.5182,9.319a.6705.6705,0,0,1,.9441,0l1.8854,1.8854a.668.668,0,0,1,0,.944L23.3,14.1953a.6666.6666,0,0,0,.4714,1.138h2.8958A.668.668,0,0,1,27.3334,16v2.6667a.6679.6679,0,0,1-.6667.6666H23.7709A.6667.6667,0,0,0,23.3,20.4714l2.0482,2.0468a.6664.6664,0,0,1,0,.9427l-1.8854,1.8868a.6705.6705,0,0,1-.9441,0Z"/><path d="M17.3334,14a3.3334,3.3334,0,1,0,3.3333,3.3333A3.3364,3.3364,0,0,0,17.3334,14Zm0,5.3333a2,2,0,1,1,2-2A2.0021,2.0021,0,0,1,17.3334,19.3333Z"/><path d="M49.3334,6A8.6471,8.6471,0,0,0,46,22.6341v3.4453a3.3334,3.3334,0,1,0,6.6667,0V22.6341A8.6471,8.6471,0,0,0,49.3334,6Zm2,20.0794a2,2,0,1,1-4,0V26h4Zm.4427-4.53a.6643.6643,0,0,0-.4427.6276v2.49H50V17.8651a3.2893,3.2893,0,0,0,2.6667-3.1984,3.3334,3.3334,0,1,0-6.6667,0,3.29,3.29,0,0,0,2.6667,3.1984v6.8016H47.3334v-2.49a.6643.6643,0,0,0-.4428-.6276,7.3334,7.3334,0,1,1,4.8855,0Zm-2.4427-4.8828a2,2,0,1,1,2-2A2.0022,2.0022,0,0,1,49.3334,16.6667Z"/><path d="M49.3334,32.6667a.6662.6662,0,0,0-.6667.6666V44A.6667.6667,0,1,0,50,44V33.3333A.6662.6662,0,0,0,49.3334,32.6667Z"/><path d="M17.3334,32.6667a.6662.6662,0,0,0-.6667.6666V44A.6667.6667,0,1,0,18,44V33.3333A.6662.6662,0,0,0,17.3334,32.6667Z"/></g></svg>