<svg xmlns="http://www.w3.org/2000/svg" viewBox="0 0 64 64"><title>47_Vision</title><g id="_47_Vision" data-name="47_Vision"><path d="M32,26A11.3334,11.3334,0,1,0,43.3333,37.3334,11.3469,11.3469,0,0,0,32,26Zm0,21.3334a10,10,0,1,1,10-10A10.011,10.011,0,0,1,32,47.3334Z"/><path d="M34.6667,31.3334A3.3333,3.3333,0,1,0,38,34.6667,3.3364,3.3364,0,0,0,34.6667,31.3334Zm0,5.3333a2,2,0,1,1,2-2A2.0022,2.0022,0,0,1,34.6667,36.6667Z"/><path d="M45.7636,23.8455l-.0181-.0079A37.3549,37.3549,0,0,0,32,20.6667a37.36,37.36,0,0,0-13.7494,3.1725l-.0073.0032C10.98,26.9283,4.6667,31.9291,4.6667,37.3334c0,5.4017,6.3076,10.4,13.5665,13.4865l.0322.014A37.3489,37.3489,0,0,0,32,54a37.3489,37.3489,0,0,0,13.7346-3.1661l.0322-.014c7.2588-3.0861,13.5665-8.0848,13.5665-13.4865S53.0238,26.9316,45.7636,23.8455ZM6,37.3334c0-3.9795,4.4095-8.11,10.1552-11.08a19.3416,19.3416,0,0,0,0,22.1609C10.41,45.4435,6,41.3127,6,37.3334ZM45.0324,49.73A35.025,35.025,0,0,1,32,52.6667,35.026,35.026,0,0,1,18.9675,49.73a17.9527,17.9527,0,0,1,0-24.7939A35.0279,35.0279,0,0,1,32,22a35.027,35.027,0,0,1,13.0324,2.9364,17.9525,17.9525,0,0,1,0,24.7939Zm2.8123-1.3165a19.3411,19.3411,0,0,0,0-22.1609C53.5905,29.2233,58,33.3539,58,37.3334S53.5905,45.4435,47.8447,48.4138Z"/><path d="M5.3333,22h9.5625a3.3088,3.3088,0,0,0,2.3568-.9766l3.7708-3.7708a2.0143,2.0143,0,0,1,1.4141-.5859h19.125a3.31,3.31,0,0,0,2.3568-.9766L47.69,11.9193a2.0141,2.0141,0,0,1,1.4141-.5859h9.5625a.6667.6667,0,0,0,0-1.3334H49.1042a3.3092,3.3092,0,0,0-2.3568.9766l-3.7709,3.7708a2.014,2.014,0,0,1-1.414.586H22.4375a3.3091,3.3091,0,0,0-2.3568.9765L16.31,20.0807a2.0144,2.0144,0,0,1-1.4141.586H5.3333a.6667.6667,0,0,0,0,1.3333Z"/><path d="M5.3333,11.3334h5.3334a.6667.6667,0,0,0,0-1.3334H5.3333a.6667.6667,0,0,0,0,1.3334Z"/><path d="M16,11.3334H26.6667a.6667.6667,0,0,0,0-1.3334H16a.6667.6667,0,1,0,0,1.3334Z"/><path d="M58.6667,15.3334H53.3333a.6667.6667,0,0,0,0,1.3333h5.3334a.6667.6667,0,0,0,0-1.3333Z"/><path d="M58.6667,20.6667H53.3333a.6667.6667,0,0,0,0,1.3333h5.3334a.6667.6667,0,0,0,0-1.3333Z"/></g></svg>